<svg xmlns="http://www.w3.org/2000/svg" xmlns:xlink="http://www.w3.org/1999/xlink" version="1.1" width="256" height="256" viewBox="0 0 256 256" xml:space="preserve">
<g style="stroke: none; stroke-width: 0; stroke-dasharray: none; stroke-linecap: butt; stroke-linejoin: miter; stroke-miterlimit: 10; fill: none; fill-rule: nonzero; opacity: 1;" transform="translate(1.4065934065934158 127.99999999999999) rotate(-45) scale(1.99 1.99)">
	<path d="M 85.307 15.42 c 2.557 -2.557 6.731 -11.002 3.509 -14.224 c -1.821 -1.821 -5.049 -1.228 -7.437 -0.411 c -2.61 0.894 -5.338 2.469 -6.788 3.92 l -22.37 22.37 l -9.963 -2.106 l 1.34 -1.34 c 0.698 -0.698 1.082 -1.625 1.082 -2.612 c 0 -0.987 -0.384 -1.914 -1.082 -2.612 l -1.465 -1.465 c -1.441 -1.441 -3.785 -1.44 -5.223 0 l -5.694 5.694 L 8.179 17.765 c -1.144 -0.241 -2.32 0.107 -3.148 0.935 l -4.01 4.01 c -0.806 0.806 -1.161 1.955 -0.949 3.074 c 0.211 1.12 0.96 2.06 2.004 2.517 l 34.051 14.891 c -5.042 5.159 -9.642 11.408 -12.576 17.104 L 8.859 57.464 c -0.924 -0.183 -1.871 0.111 -2.536 0.776 l -2.455 2.455 c -0.651 0.651 -0.945 1.581 -0.786 2.488 c 0.159 0.906 0.751 1.682 1.585 2.072 l 10.937 5.128 c 1.767 0.829 3.202 2.257 4.04 4.021 L 24.818 85.3 c 0.393 0.829 1.168 1.418 2.073 1.574 c 0.16 0.027 0.321 0.041 0.48 0.041 c 0.744 0 1.467 -0.294 2.001 -0.828 l 2.462 -2.462 c 0.668 -0.668 0.957 -1.619 0.775 -2.546 l -2.878 -14.628 c 5.691 -2.934 11.933 -7.53 17.088 -12.568 l 14.891 34.051 c 0.457 1.045 1.397 1.794 2.517 2.005 C 64.44 89.98 64.654 90 64.866 90 c 0.904 0 1.782 -0.357 2.434 -1.01 l 4.012 -4.011 c 0.826 -0.827 1.175 -2.004 0.934 -3.147 l -4.869 -23.037 l 5.693 -5.693 c 0.698 -0.697 1.082 -1.625 1.082 -2.611 c 0 -0.987 -0.384 -1.915 -1.082 -2.612 l -1.465 -1.465 c -1.44 -1.441 -3.785 -1.44 -5.223 0 l -1.339 1.34 l -2.106 -9.964 L 85.307 15.42 z M 38.324 18.354 c 0.659 -0.66 1.733 -0.661 2.395 0 l 1.465 1.465 c 0.32 0.32 0.496 0.745 0.496 1.198 c 0 0.452 -0.176 0.877 -0.496 1.198 l -2.26 2.26 l -6.373 -1.347 L 38.324 18.354 z M 2.037 25.414 c -0.09 -0.477 0.055 -0.947 0.398 -1.29 l 4.01 -4.01 c 0.347 -0.346 0.841 -0.496 1.32 -0.392 l 42.768 9.04 L 37.629 41.667 L 2.878 26.47 C 2.433 26.275 2.127 25.891 2.037 25.414 z M 30.42 82.211 l -2.462 2.462 c -0.193 0.193 -0.46 0.277 -0.727 0.23 c -0.269 -0.047 -0.49 -0.215 -0.607 -0.461 l -5.173 -10.896 c -1.036 -2.182 -2.811 -3.949 -4.998 -4.974 L 5.516 63.445 c -0.248 -0.116 -0.417 -0.338 -0.465 -0.607 c -0.047 -0.27 0.037 -0.535 0.23 -0.728 l 2.454 -2.455 c 0.157 -0.156 0.368 -0.242 0.585 -0.242 c 0.053 0 0.105 0.005 0.158 0.015 l 18.534 3.574 l 3.633 18.466 C 30.7 81.737 30.615 82.016 30.42 82.211 z M 28.846 61.953 c -0.079 -0.399 -0.392 -0.711 -0.791 -0.788 l -2.45 -0.472 c 3.055 -5.764 7.808 -12.075 12.95 -17.123 c 0.001 -0.001 0.002 -0.003 0.003 -0.005 c 0.001 -0.001 0.002 -0.001 0.003 -0.002 L 76.005 6.118 c 1.234 -1.235 3.711 -2.65 6.022 -3.442 c 2.538 -0.87 4.548 -0.894 5.375 -0.067 c 1.854 1.854 -0.918 8.805 -3.509 11.396 L 46.448 51.451 c -0.001 0.001 -0.001 0.003 -0.003 0.004 c -0.001 0.001 -0.003 0.002 -0.004 0.003 c -5.044 5.139 -11.352 9.891 -17.113 12.945 L 28.846 61.953 z M 67.797 47.827 c 0.661 -0.661 1.736 -0.659 2.395 0 l 1.465 1.465 c 0.32 0.32 0.496 0.745 0.496 1.198 c 0 0.452 -0.176 0.877 -0.496 1.197 l -4.773 4.773 l -1.347 -6.372 L 67.797 47.827 z M 70.29 82.246 c 0.102 0.479 -0.045 0.974 -0.392 1.32 l -4.011 4.01 c -0.343 0.343 -0.811 0.491 -1.29 0.398 c -0.477 -0.09 -0.861 -0.396 -1.056 -0.841 L 48.344 52.382 L 61.25 39.477 L 70.29 82.246 z" style="stroke: none; stroke-width: 1; stroke-dasharray: none; stroke-linecap: butt; stroke-linejoin: miter; stroke-miterlimit: 10; fill: rgb(214,222,52); fill-rule: nonzero; opacity: 1;" transform=" matrix(1 0 0 1 0 0) " stroke-linecap="round"/>
	<path d="M 82.278 11.988 c -0.256 0 -0.512 -0.098 -0.707 -0.293 c -0.391 -0.391 -0.391 -1.024 0 -1.414 c 0.76 -0.759 1.446 -2.673 1.215 -3.086 C 82.4 6.993 80.489 7.68 79.731 8.44 c -0.391 0.391 -1.023 0.39 -1.414 0 c -0.391 -0.391 -0.391 -1.024 0 -1.414 c 0.58 -0.58 1.61 -1.18 2.624 -1.527 c 1.834 -0.627 2.791 -0.183 3.273 0.299 c 1.516 1.518 -0.194 4.864 -1.228 5.898 C 82.79 11.891 82.534 11.988 82.278 11.988 z" style="stroke: none; stroke-width: 1; stroke-dasharray: none; stroke-linecap: butt; stroke-linejoin: miter; stroke-miterlimit: 10; fill: rgb(214,222,52); fill-rule: nonzero; opacity: 1;" transform=" matrix(1 0 0 1 0 0) " stroke-linecap="round"/>
</g>
</svg>